<svg width="33" height="33" viewBox="0 0 33 33" fill="none" xmlns="http://www.w3.org/2000/svg">
<path fill-rule="evenodd" clip-rule="evenodd" d="M16.5 33C25.6127 33 33 25.6127 33 16.5C33 7.3873 25.6127 0 16.5 0C7.3873 0 0 7.3873 0 16.5C0 25.6127 7.3873 33 16.5 33ZM24.1459 13.8334C24.9514 13.028 24.9514 11.722 24.1459 10.9166C23.3405 10.1111 22.0345 10.1111 21.2291 10.9166L14.4375 17.7082L11.7709 15.0416C10.9655 14.2361 9.65955 14.2361 8.85409 15.0416C8.04864 15.847 8.04864 17.1529 8.85409 17.9584L12.9791 22.0834C13.7845 22.8889 15.0905 22.8889 15.8959 22.0834L24.1459 13.8334Z" fill="#4BC4D5"/>
</svg>
